<?xml version="1.0" encoding="UTF-8" standalone="no"?>
<!-- Created with Inkscape (http://www.inkscape.org/) -->

<svg
   width="250mm"
   height="40mm"
   viewBox="0 0 250 40.000001"
   version="1.1"
   id="svg1"
   inkscape:export-filename="pd-light.svg"
   inkscape:export-xdpi="50.80003"
   inkscape:export-ydpi="50.80003"
   inkscape:version="1.4 (e7c3feb100, 2024-10-09)"
   sodipodi:docname="pd-dark.svg"
   xmlns:inkscape="http://www.inkscape.org/namespaces/inkscape"
   xmlns:sodipodi="http://sodipodi.sourceforge.net/DTD/sodipodi-0.dtd"
   xmlns="http://www.w3.org/2000/svg"
   xmlns:svg="http://www.w3.org/2000/svg">
  <sodipodi:namedview
     id="namedview1"
     pagecolor="#ffffff"
     bordercolor="#000000"
     borderopacity="0.25"
     inkscape:showpageshadow="2"
     inkscape:pageopacity="0.0"
     inkscape:pagecheckerboard="0"
     inkscape:deskcolor="#d1d1d1"
     inkscape:document-units="mm"
     inkscape:export-bgcolor="#ffffff00"
     inkscape:zoom="1.4142136"
     inkscape:cx="427.09249"
     inkscape:cy="202.23254"
     inkscape:window-width="2560"
     inkscape:window-height="1372"
     inkscape:window-x="1920"
     inkscape:window-y="32"
     inkscape:window-maximized="1"
     inkscape:current-layer="text1" />
  <defs
     id="defs1" />
  <g
     inkscape:label="Layer 1"
     inkscape:groupmode="layer"
     id="layer1">
    <g
       id="text1"
       style="font-weight:bold;font-size:40.7304px;line-height:0.35;font-family:Georgia;-inkscape-font-specification:'Georgia Bold';text-align:center;letter-spacing:-1.85138px;word-spacing:-1.85138px;text-orientation:upright;text-anchor:middle;fill:#ffffff;stroke-width:6.99999;stroke-linecap:round;stroke-linejoin:round;paint-order:stroke fill markers"
       aria-label="project:Duofur">
      <path
         style="font-weight:normal;font-family:Ubuntu;-inkscape-font-specification:'Ubuntu, Normal';fill:#f7f7f7;fill-opacity:1"
         d="M -3.1099468e-6,39.141915 V 11.24159 Q 0.81460489,10.956478 1.9143257,10.712095 q 1.1404512,-0.244382 2.6067456,-0.407304 1.4662944,-0.203652 3.258432,-0.203652 3.1362407,0 5.4986037,1.344104 2.362364,1.303372 3.665736,3.787927 1.303373,2.443824 1.303373,5.865177 0,3.217702 -1.140451,5.702256 -1.099721,2.484555 -3.217702,3.910119 -2.11798,1.384833 -5.1727605,1.384833 -1.9550592,0 -3.462084,-0.529495 -1.4662944,-0.570225 -2.1994416,-1.099721 v 8.675576 z M 8.3497289,29.366619 q 1.8328681,0 3.0955101,-0.610956 1.303373,-0.651687 2.077251,-1.792138 0.814608,-1.140451 1.140451,-2.606746 0.366574,-1.507024 0.366574,-3.217701 0,-2.647476 -0.896069,-4.521075 -0.896069,-1.873598 -2.566015,-2.851128 -1.6292165,-0.977529 -3.8286581,-0.977529 -1.7921376,0 -2.9733192,0.203652 -1.1404512,0.162921 -1.7106768,0.325843 v 14.29637 q 0.6924168,0.529496 2.1179808,1.140452 1.425564,0.610956 3.1769712,0.610956 z M 21.975865,31.606791 V 11.485973 q 1.058991,-0.448035 2.891859,-0.896069 1.873598,-0.488765 4.480344,-0.488765 0.855338,0 1.669946,0.122191 0.855338,0.08146 1.507025,0.244383 0.692417,0.122191 1.01826,0.244382 l -0.610956,2.606746 q -0.366574,-0.162922 -1.384834,-0.325843 -1.01826,-0.203652 -2.606745,-0.203652 -1.547756,0 -2.566016,0.244382 -1.01826,0.203652 -1.344103,0.366574 v 18.206489 z m 22.016643,0.488764 q -2.810398,0 -5.009839,-1.344103 -2.199442,-1.384833 -3.462084,-3.869388 -1.221912,-2.484554 -1.221912,-5.824447 0,-3.339893 1.221912,-5.783717 1.262642,-2.484554 3.462084,-3.869388 2.199441,-1.384834 5.009839,-1.384834 2.851128,0 5.05057,1.384834 2.199441,1.384834 3.421353,3.869388 1.262643,2.443824 1.262643,5.783717 0,3.339893 -1.262643,5.824447 -1.221912,2.484555 -3.421353,3.869388 -2.158712,1.344103 -5.05057,1.344103 z m 0,-2.728936 q 2.03652,0 3.502814,-1.01826 1.466295,-1.01826 2.240172,-2.891859 0.814608,-1.873598 0.814608,-4.398883 0,-2.525285 -0.814608,-4.398883 -0.773877,-1.873599 -2.240172,-2.891859 -1.466294,-1.01826 -3.502814,-1.01826 -1.99579,0 -3.462084,1.01826 -1.466294,1.01826 -2.280902,2.891859 -0.773878,1.873598 -0.773878,4.398883 0,2.525285 0.773878,4.398883 0.814608,1.873599 2.280902,2.891859 1.466294,1.01826 3.462084,1.01826 z m 9.797479,9.856756 q -0.448035,0 -1.181182,-0.162921 -0.733147,-0.122191 -1.140451,-0.285113 l 0.407304,-2.443824 q 0.325843,0.08146 0.814608,0.162922 0.488765,0.08146 0.977529,0.08146 1.547756,0 2.362364,-0.570225 0.855338,-0.570226 1.140451,-1.710677 0.325843,-1.140451 0.325843,-2.851128 V 10.508443 h 3.05478 v 20.813235 q 0,2.647476 -0.692417,4.398883 -0.692417,1.792138 -2.199441,2.647476 -1.466295,0.855338 -3.869388,0.855338 z M 59.044208,5.9873689 q -0.896069,0 -1.547755,-0.610956 -0.610956,-0.610956 -0.610956,-1.629216 0,-0.9775296 0.610956,-1.5884856 0.651686,-0.610956 1.547755,-0.610956 0.896069,0 1.507025,0.610956 0.651686,0.610956 0.651686,1.5884856 0,1.01826 -0.651686,1.629216 -0.610956,0.610956 -1.507025,0.610956 z M 74.788362,32.054825 q -3.706466,0 -6.028099,-1.425564 -2.280903,-1.425564 -3.380623,-3.910118 -1.058991,-2.484555 -1.058991,-5.661526 0,-3.706466 1.344103,-6.15029 1.344104,-2.443824 3.462084,-3.665737 2.158712,-1.221912 4.521075,-1.221912 2.647476,0 4.561805,1.140452 1.955059,1.099721 3.014049,3.421353 1.058991,2.280903 1.058991,5.824448 0,0.285112 -0.04073,0.692416 0,0.366574 -0.04073,0.692417 H 67.49762 q 0.162922,3.584275 1.914329,5.580065 1.792138,1.955059 5.539335,1.955059 2.07725,0 3.380623,-0.366573 1.344103,-0.407304 1.914329,-0.692417 l 0.529495,2.566015 q -0.570226,0.325843 -2.240172,0.773878 -1.629216,0.448034 -3.747197,0.448034 z M 67.579081,19.30621 h 11.608164 q -0.04073,-2.077251 -0.692416,-3.543545 -0.651687,-1.507025 -1.873599,-2.280902 -1.181181,-0.814608 -2.932589,-0.814608 -1.792137,0 -3.136241,0.936799 -1.344103,0.936799 -2.11798,2.443824 -0.733148,1.507025 -0.855339,3.258432 z m 27.474513,12.748615 q -3.339893,0 -5.580065,-1.344103 -2.240172,-1.384834 -3.380623,-3.869388 -1.140451,-2.484555 -1.140451,-5.742987 0,-3.299162 1.181181,-5.783716 1.181182,-2.484555 3.380624,-3.869388 2.240172,-1.425565 5.294952,-1.425565 1.669946,0 3.176971,0.285113 1.507025,0.285113 2.362367,0.733147 l -0.773882,2.566016 Q 98.76006,13.23738 97.7418,12.992998 q -1.01826,-0.244383 -2.688206,-0.244383 -3.380623,0 -5.172761,2.199442 -1.751407,2.199442 -1.751407,6.15029 0,2.443824 0.733147,4.317423 0.733147,1.832868 2.362363,2.891858 1.629216,1.01826 4.317423,1.01826 1.588485,0 2.769667,-0.366573 1.221912,-0.366574 1.792134,-0.651687 l 0.61096,2.606746 q -0.773878,0.407304 -2.362364,0.773877 -1.588485,0.366574 -3.299162,0.366574 z m 15.092476,0 q -2.68821,0 -4.23596,-0.936799 -1.54776,-0.936799 -2.19944,-2.810398 -0.61096,-1.873598 -0.61096,-4.683996 V 4.3988833 l 3.05478,-0.5294952 v 6.6390549 h 8.26827 v 2.566016 h -8.26827 v 10.793556 q 0,2.240172 0.48876,3.421353 0.5295,1.181182 1.4663,1.629216 0.97753,0.407304 2.2809,0.407304 1.54776,0 2.56602,-0.366573 1.05899,-0.366574 1.66994,-0.651687 l 0.65169,2.484555 q -0.61096,0.366573 -2.03652,0.814608 -1.38483,0.448034 -3.09551,0.448034 z"
         id="path4" />
      <path
         style="font-weight:normal;font-family:Ubuntu;-inkscape-font-specification:'Ubuntu, Normal';letter-spacing:0.259657px;word-spacing:0px;fill:#f7f7f7;fill-opacity:1"
         d="m 120.96952,32.095555 q -1.09972,0 -1.7514,-0.692416 -0.65169,-0.692417 -0.65169,-1.710677 0,-1.01826 0.65169,-1.710677 0.65168,-0.692417 1.7514,-0.692417 1.09973,0 1.75141,0.692417 0.65169,0.692417 0.65169,1.710677 0,1.01826 -0.65169,1.710677 -0.65168,0.692416 -1.75141,0.692416 z m 0,-16.780924 q -1.09972,0 -1.7514,-0.692417 -0.65169,-0.692417 -0.65169,-1.710677 0,-1.01826 0.65169,-1.710677 0.65168,-0.692417 1.7514,-0.692417 1.09973,0 1.75141,0.692417 0.65169,0.692417 0.65169,1.710677 0,1.01826 -0.65169,1.710677 -0.65168,0.692417 -1.75141,0.692417 z"
         id="path5" />
      <path
         style="font-family:Ubuntu;-inkscape-font-specification:'Ubuntu, Bold';fill:#208fe9"
         d="m 135.76225,31.932634 q -1.71068,0 -3.91012,-0.162922 -2.19944,-0.122191 -4.23596,-0.570225 V 3.7879273 q 2.03652,-0.407304 4.31742,-0.5702256 2.2809,-0.1629216 3.99158,-0.1629216 4.76546,0 8.34973,1.5070248 3.58428,1.5070248 5.58007,4.683996 1.99579,3.1769711 1.99579,8.2275411 0,4.846917 -1.99579,8.064619 -1.95506,3.217702 -5.58007,4.806187 -3.625,1.588486 -8.51265,1.588486 z m 0.32584,-4.765457 q 5.05057,0 7.49439,-2.566015 2.48456,-2.606746 2.48456,-7.12782 0,-4.683996 -2.40309,-7.168551 -2.36237,-2.4845541 -7.41294,-2.4845541 -1.01826,0 -1.79213,0.04073 -0.73315,0.04073 -1.26265,0.1221912 V 27.044986 q 0.40731,0.04073 1.05899,0.08146 0.69242,0.04073 1.83287,0.04073 z m 27.96327,4.887648 q -3.50281,0 -5.53933,-1.262642 -1.99579,-1.262643 -2.8104,-3.462084 -0.81461,-2.240172 -0.81461,-5.172761 V 10.264061 h 5.33568 v 11.16013 q 0,2.158711 0.36658,3.502814 0.4073,1.344103 1.3441,1.955059 0.9368,0.610956 2.48456,0.610956 0.93679,0 1.79213,-0.08146 0.89607,-0.08146 1.42557,-0.162921 V 10.264061 h 5.29495 v 20.609582 q -1.4663,0.407304 -3.82866,0.773878 -2.32163,0.407304 -5.05057,0.407304 z m 22.30172,0.08146 q -3.05478,0 -5.41714,-1.384834 -2.32163,-1.425564 -3.62501,-3.950849 -1.30337,-2.525284 -1.30337,-5.905908 0,-3.380623 1.3441,-5.865177 1.34411,-2.484555 3.66574,-3.910119 2.36236,-1.4255637 5.33568,-1.4255637 3.01405,0 5.33568,1.4255637 2.36237,1.384834 3.66574,3.910119 1.30337,2.484554 1.30337,5.865177 0,3.380624 -1.30337,5.905908 -1.26264,2.525285 -3.58428,3.950849 -2.2809,1.384834 -5.41714,1.384834 z m 0,-4.561805 q 1.54776,0 2.60675,-0.814608 1.09972,-0.814608 1.66994,-2.321633 0.61096,-1.507025 0.61096,-3.543545 0,-2.03652 -0.61096,-3.502814 -0.57022,-1.466294 -1.66994,-2.280902 -1.05899,-0.814608 -2.60675,-0.814608 -1.54775,0 -2.64747,0.814608 -1.09973,0.814608 -1.66995,2.280902 -0.57023,1.466294 -0.57023,3.502814 0,2.03652 0.57023,3.543545 0.57022,1.466295 1.66995,2.321633 1.09972,0.814608 2.64747,0.814608 z m 13.42249,4.03231 V 8.8792273 q 0,-4.1545008 2.24017,-6.516864 Q 204.25591,7.6293944e-8 208.69553,7.6293944e-8 q 1.71067,0 3.05478,0.325843203706056 1.3441,0.3258432 2.03652,0.610956 l -1.01826,4.27669202 q -0.73315,-0.3258432 -1.66995,-0.4887648 -0.9368,-0.203652 -1.8736,-0.203652 -2.36236,0 -3.25843,1.221912 -0.89607,1.1811816 -0.89607,3.2177016 v 1.3033729 h 7.69805 v 4.439614 h -7.69805 v 16.903116 z m 23.84952,0.448034 q -3.50281,0 -5.53933,-1.262642 -1.99579,-1.262643 -2.8104,-3.462084 -0.81461,-2.240172 -0.81461,-5.172761 V 10.264061 h 5.33568 v 11.16013 q 0,2.158711 0.36658,3.502814 0.4073,1.344103 1.3441,1.955059 0.9368,0.610956 2.48456,0.610956 0.9368,0 1.79213,-0.08146 0.89607,-0.08146 1.42557,-0.162921 V 10.264061 h 5.29495 v 20.609582 q -1.46629,0.407304 -3.82866,0.773878 -2.32163,0.407304 -5.05057,0.407304 z m 13.05592,-0.448034 V 11.363782 q 1.4663,-0.529496 3.58428,-1.01826 2.15871,-0.5294955 4.84691,-0.5294955 0.69242,0 1.62922,0.1221912 0.9368,0.08146 1.79214,0.2443823 0.89607,0.162922 1.46629,0.407304 l -0.89607,4.398883 q -0.73314,-0.203652 -1.83287,-0.407304 -1.05899,-0.203652 -2.40309,-0.203652 -0.81461,0 -1.66995,0.122192 -0.8146,0.122191 -1.22191,0.285112 v 16.821656 z"
         id="path6" />
    </g>
  </g>
</svg>
